STARTFONT 2.1
COMMENT
COMMENT Converted from OpenType font "LEDBDREV.TTF" by "otf2bdf 3.0".
COMMENT
FONT -FreeType-LED BOARD REVERSED-Medium-R-Normal--10-70-100-100-P-17-ISO10646-1
SIZE 7 100 100
FONTBOUNDINGBOX 8 10 0 0
STARTPROPERTIES 19
FOUNDRY "FreeType"
FAMILY_NAME "LED BOARD REVERSED"
WEIGHT_NAME "Medium"
SLANT "R"
SETWIDTH_NAME "Normal"
ADD_STYLE_NAME ""
PIXEL_SIZE 10
POINT_SIZE 70
RESOLUTION_X 100
RESOLUTION_Y 100
SPACING "P"
AVERAGE_WIDTH 17
CHARSET_REGISTRY "ISO10646"
CHARSET_ENCODING "1"
FONT_ASCENT 10
FONT_DESCENT 0
COPYRIGHT "Copyright 2000 Paul Hustava - phustava@inlink.com"
_OTF_FONTFILE "LEDBDREV.TTF"
_OTF_PSNAME "LED BOARD REVERSED"
ENDPROPERTIES
CHARS 559
STARTCHAR 0020
ENCODING 32
SWIDTH 822 0
DWIDTH 8 0
BBX 4 4 0 1
BITMAP
10
10
20
C0
ENDCHAR
STARTCHAR 0021
ENCODING 33
SWIDTH 822 0
DWIDTH 8 0
BBX 6 10 0 0
BITMAP
2C
2C
14
F0
00
00
30
00
30
30
ENDCHAR
STARTCHAR 0022
ENCODING 34
SWIDTH 822 0
DWIDTH 8 0
BBX 6 4 0 1
BITMAP
3C
3C
04
E0
ENDCHAR
STARTCHAR 0023
ENCODING 35
SWIDTH 822 0
DWIDTH 8 0
BBX 8 9 0 1
BITMAP
32
32
57
E2
00
00
73
22
22
ENDCHAR
STARTCHAR 0024
ENCODING 36
SWIDTH 822 0
DWIDTH 8 0
BBX 7 9 0 1
BITMAP
2C
72
90
00
00
12
52
3C
10
ENDCHAR
STARTCHAR 0025
ENCODING 37
SWIDTH 822 0
DWIDTH 8 0
BBX 8 10 0 0
BITMAP
6D
43
52
C2
00
00
10
13
2D
0F
ENDCHAR
STARTCHAR 0026
ENCODING 38
SWIDTH 822 0
DWIDTH 8 0
BBX 8 10 0 0
BITMAP
1C
0F
04
E0
00
00
20
20
1F
0C
ENDCHAR
STARTCHAR 0027
ENCODING 39
SWIDTH 822 0
DWIDTH 8 0
BBX 4 2 0 3
BITMAP
30
D0
ENDCHAR
STARTCHAR 0028
ENCODING 40
SWIDTH 822 0
DWIDTH 8 0
BBX 7 10 0 0
BITMAP
12
1C
24
C0
00
00
00
00
0C
02
ENDCHAR
STARTCHAR 0029
ENCODING 41
SWIDTH 822 0
DWIDTH 8 0
BBX 4 10 0 0
BITMAP
30
00
30
D0
00
00
10
10
10
20
ENDCHAR
STARTCHAR 002A
ENCODING 42
SWIDTH 822 0
DWIDTH 8 0
BBX 7 9 0 1
BITMAP
42
14
D0
40
40
10
30
52
10
ENDCHAR
STARTCHAR 002B
ENCODING 43
SWIDTH 822 0
DWIDTH 8 0
BBX 4 8 0 1
BITMAP
10
10
30
D0
40
40
10
10
ENDCHAR
STARTCHAR 002C
ENCODING 44
SWIDTH 822 0
DWIDTH 8 0
BBX 4 10 0 0
BITMAP
10
10
20
C0
00
00
00
60
60
20
ENDCHAR
STARTCHAR 002D
ENCODING 45
SWIDTH 822 0
DWIDTH 8 0
BBX 8 6 0 1
BITMAP
10
10
20
C0
41
40
ENDCHAR
STARTCHAR 002E
ENCODING 46
SWIDTH 822 0
DWIDTH 8 0
BBX 4 9 0 1
BITMAP
10
10
20
C0
00
00
00
60
60
ENDCHAR
STARTCHAR 002F
ENCODING 47
SWIDTH 822 0
DWIDTH 8 0
BBX 8 9 0 1
BITMAP
10
11
23
C2
00
00
30
60
40
ENDCHAR
STARTCHAR 0030
ENCODING 48
SWIDTH 822 0
DWIDTH 8 0
BBX 8 10 0 0
BITMAP
2E
53
63
81
41
40
51
61
61
3E
ENDCHAR
STARTCHAR 0031
ENCODING 49
SWIDTH 822 0
DWIDTH 8 0
BBX 8 9 0 1
BITMAP
20
30
D0
00
00
10
10
10
7F
ENDCHAR
STARTCHAR 0032
ENCODING 50
SWIDTH 822 0
DWIDTH 8 0
BBX 8 10 0 0
BITMAP
6E
51
21
C1
01
00
40
40
40
7F
ENDCHAR
STARTCHAR 0033
ENCODING 51
SWIDTH 822 0
DWIDTH 8 0
BBX 8 10 0 0
BITMAP
6E
11
21
C1
40
40
01
01
01
7E
ENDCHAR
STARTCHAR 0034
ENCODING 52
SWIDTH 822 0
DWIDTH 8 0
BBX 8 10 0 0
BITMAP
12
1E
32
E2
40
40
73
02
02
02
ENDCHAR
STARTCHAR 0035
ENCODING 53
SWIDTH 822 0
DWIDTH 8 0
BBX 8 10 0 0
BITMAP
6F
50
60
80
40
40
01
01
01
7E
ENDCHAR
STARTCHAR 0036
ENCODING 54
SWIDTH 822 0
DWIDTH 8 0
BBX 8 10 0 0
BITMAP
2E
51
60
80
40
40
41
41
41
3E
ENDCHAR
STARTCHAR 0037
ENCODING 55
SWIDTH 822 0
DWIDTH 8 0
BBX 8 10 0 0
BITMAP
6F
51
21
C2
00
00
10
10
10
10
ENDCHAR
STARTCHAR 0038
ENCODING 56
SWIDTH 822 0
DWIDTH 8 0
BBX 8 10 0 0
BITMAP
2E
51
61
81
00
00
41
41
41
3E
ENDCHAR
STARTCHAR 0039
ENCODING 57
SWIDTH 822 0
DWIDTH 8 0
BBX 8 10 0 0
BITMAP
2E
51
61
81
01
00
01
01
01
3E
ENDCHAR
STARTCHAR 003A
ENCODING 58
SWIDTH 822 0
DWIDTH 8 0
BBX 4 9 0 1
BITMAP
10
10
10
F0
00
00
00
30
30
ENDCHAR
STARTCHAR 003B
ENCODING 59
SWIDTH 822 0
DWIDTH 8 0
BBX 4 10 0 0
BITMAP
10
10
10
F0
00
00
00
30
30
10
ENDCHAR
STARTCHAR 003C
ENCODING 60
SWIDTH 822 0
DWIDTH 8 0
BBX 8 8 0 1
BITMAP
10
10
23
D0
40
40
10
03
ENDCHAR
STARTCHAR 003D
ENCODING 61
SWIDTH 822 0
DWIDTH 8 0
BBX 7 7 0 1
BITMAP
10
10
20
B2
00
00
72
ENDCHAR
STARTCHAR 003E
ENCODING 62
SWIDTH 822 0
DWIDTH 8 0
BBX 8 8 0 1
BITMAP
10
10
40
D0
01
00
10
60
ENDCHAR
STARTCHAR 003F
ENCODING 63
SWIDTH 822 0
DWIDTH 8 0
BBX 7 9 0 1
BITMAP
2C
52
62
C0
00
00
10
00
10
ENDCHAR
STARTCHAR 0040
ENCODING 64
SWIDTH 822 0
DWIDTH 8 0
BBX 8 10 0 0
BITMAP
2E
51
75
A3
41
40
63
50
41
3E
ENDCHAR
STARTCHAR 0041
ENCODING 65
SWIDTH 822 0
DWIDTH 8 0
BBX 8 10 0 0
BITMAP
2E
51
61
81
41
40
73
41
41
41
ENDCHAR
STARTCHAR 0042
ENCODING 66
SWIDTH 822 0
DWIDTH 8 0
BBX 8 10 0 0
BITMAP
6E
51
61
81
40
40
41
41
41
7E
ENDCHAR
STARTCHAR 0043
ENCODING 67
SWIDTH 822 0
DWIDTH 8 0
BBX 8 10 0 0
BITMAP
2E
51
60
80
40
40
40
40
41
3E
ENDCHAR
STARTCHAR 0044
ENCODING 68
SWIDTH 822 0
DWIDTH 8 0
BBX 8 10 0 0
BITMAP
6C
52
61
81
41
40
41
41
42
7C
ENDCHAR
STARTCHAR 0045
ENCODING 69
SWIDTH 822 0
DWIDTH 8 0
BBX 8 10 0 0
BITMAP
6F
50
60
80
40
40
40
40
40
7F
ENDCHAR
STARTCHAR 0046
ENCODING 70
SWIDTH 822 0
DWIDTH 8 0
BBX 8 10 0 0
BITMAP
6F
50
60
80
40
40
40
40
40
40
ENDCHAR
STARTCHAR 0047
ENCODING 71
SWIDTH 822 0
DWIDTH 8 0
BBX 8 10 0 0
BITMAP
2E
51
60
80
40
40
43
41
41
3E
ENDCHAR
STARTCHAR 0048
ENCODING 72
SWIDTH 822 0
DWIDTH 8 0
BBX 8 10 0 0
BITMAP
51
51
61
81
41
40
41
41
41
41
ENDCHAR
STARTCHAR 0049
ENCODING 73
SWIDTH 822 0
DWIDTH 8 0
BBX 8 10 0 0
BITMAP
6F
00
30
D0
00
00
10
10
10
7F
ENDCHAR
STARTCHAR 004A
ENCODING 74
SWIDTH 822 0
DWIDTH 8 0
BBX 8 10 0 0
BITMAP
11
11
21
C1
01
00
01
41
41
3E
ENDCHAR
STARTCHAR 004B
ENCODING 75
SWIDTH 822 0
DWIDTH 8 0
BBX 8 10 0 0
BITMAP
51
52
64
90
40
40
50
40
42
41
ENDCHAR
STARTCHAR 004C
ENCODING 76
SWIDTH 822 0
DWIDTH 8 0
BBX 8 10 0 0
BITMAP
50
50
60
80
40
40
40
40
40
7F
ENDCHAR
STARTCHAR 004D
ENCODING 77
SWIDTH 822 0
DWIDTH 8 0
BBX 8 10 0 0
BITMAP
51
73
57
91
41
40
41
41
41
41
ENDCHAR
STARTCHAR 004E
ENCODING 78
SWIDTH 822 0
DWIDTH 8 0
BBX 8 10 0 0
BITMAP
51
71
51
91
41
40
41
43
43
41
ENDCHAR
STARTCHAR 004F
ENCODING 79
SWIDTH 822 0
DWIDTH 8 0
BBX 8 10 0 0
BITMAP
2E
51
61
81
41
40
41
41
41
3E
ENDCHAR
STARTCHAR 0050
ENCODING 80
SWIDTH 822 0
DWIDTH 8 0
BBX 8 10 0 0
BITMAP
6E
51
61
81
40
40
40
40
40
40
ENDCHAR
STARTCHAR 0051
ENCODING 81
SWIDTH 822 0
DWIDTH 8 0
BBX 8 10 0 0
BITMAP
2E
51
61
81
41
40
41
41
43
3F
ENDCHAR
STARTCHAR 0052
ENCODING 82
SWIDTH 822 0
DWIDTH 8 0
BBX 8 10 0 0
BITMAP
6E
51
61
81
40
40
40
42
41
41
ENDCHAR
STARTCHAR 0053
ENCODING 83
SWIDTH 822 0
DWIDTH 8 0
BBX 8 10 0 0
BITMAP
2E
51
60
80
00
00
01
01
41
3E
ENDCHAR
STARTCHAR 0054
ENCODING 84
SWIDTH 822 0
DWIDTH 8 0
BBX 8 10 0 0
BITMAP
6F
00
30
D0
00
00
10
10
10
10
ENDCHAR
STARTCHAR 0055
ENCODING 85
SWIDTH 822 0
DWIDTH 8 0
BBX 8 10 0 0
BITMAP
51
51
61
81
41
40
41
41
41
3E
ENDCHAR
STARTCHAR 0056
ENCODING 86
SWIDTH 822 0
DWIDTH 8 0
BBX 8 10 0 0
BITMAP
51
51
61
81
41
40
41
22
22
1C
ENDCHAR
STARTCHAR 0057
ENCODING 87
SWIDTH 822 0
DWIDTH 8 0
BBX 8 10 0 0
BITMAP
51
51
61
91
41
40
51
73
22
22
ENDCHAR
STARTCHAR 0058
ENCODING 88
SWIDTH 822 0
DWIDTH 8 0
BBX 8 10 0 0
BITMAP
51
51
02
D0
00
00
10
22
41
41
ENDCHAR
STARTCHAR 0059
ENCODING 89
SWIDTH 822 0
DWIDTH 8 0
BBX 8 10 0 0
BITMAP
51
51
61
E2
00
00
10
10
10
10
ENDCHAR
STARTCHAR 005A
ENCODING 90
SWIDTH 822 0
DWIDTH 8 0
BBX 8 10 0 0
BITMAP
6F
11
23
C2
00
00
30
60
40
7F
ENDCHAR
STARTCHAR 005B
ENCODING 91
SWIDTH 308 0
DWIDTH 3 0
BBX 0 0 0 0
BITMAP
ENDCHAR
STARTCHAR 005C
ENCODING 92
SWIDTH 822 0
DWIDTH 8 0
BBX 8 10 0 0
BITMAP
50
50
00
D0
00
00
10
02
01
01
ENDCHAR
STARTCHAR 005D
ENCODING 93
SWIDTH 308 0
DWIDTH 3 0
BBX 0 0 0 0
BITMAP
ENDCHAR
STARTCHAR 005E
ENCODING 94
SWIDTH 514 0
DWIDTH 5 0
BBX 0 0 0 0
BITMAP
ENDCHAR
STARTCHAR 005F
ENCODING 95
SWIDTH 822 0
DWIDTH 8 0
BBX 8 10 0 0
BITMAP
10
10
20
C0
00
00
00
00
00
FF
ENDCHAR
STARTCHAR 0060
ENCODING 96
SWIDTH 308 0
DWIDTH 3 0
BBX 0 0 0 0
BITMAP
ENDCHAR
STARTCHAR 0061
ENCODING 97
SWIDTH 822 0
DWIDTH 8 0
BBX 8 10 0 0
BITMAP
2E
51
61
81
41
40
73
41
41
41
ENDCHAR
STARTCHAR 0062
ENCODING 98
SWIDTH 822 0
DWIDTH 8 0
BBX 8 10 0 0
BITMAP
6E
51
61
81
40
40
41
41
41
7E
ENDCHAR
STARTCHAR 0063
ENCODING 99
SWIDTH 822 0
DWIDTH 8 0
BBX 8 10 0 0
BITMAP
2E
51
60
80
40
40
40
40
41
3E
ENDCHAR
STARTCHAR 0064
ENCODING 100
SWIDTH 822 0
DWIDTH 8 0
BBX 8 10 0 0
BITMAP
6C
52
61
81
41
40
41
41
42
7C
ENDCHAR
STARTCHAR 0065
ENCODING 101
SWIDTH 822 0
DWIDTH 8 0
BBX 8 10 0 0
BITMAP
6F
50
60
80
40
40
40
40
40
7F
ENDCHAR
STARTCHAR 0066
ENCODING 102
SWIDTH 822 0
DWIDTH 8 0
BBX 8 10 0 0
BITMAP
6F
50
60
80
40
40
40
40
40
40
ENDCHAR
STARTCHAR 0067
ENCODING 103
SWIDTH 822 0
DWIDTH 8 0
BBX 8 10 0 0
BITMAP
2E
51
60
80
40
40
43
41
41
3E
ENDCHAR
STARTCHAR 0068
ENCODING 104
SWIDTH 822 0
DWIDTH 8 0
BBX 8 10 0 0
BITMAP
51
51
61
81
41
40
41
41
41
41
ENDCHAR
STARTCHAR 0069
ENCODING 105
SWIDTH 822 0
DWIDTH 8 0
BBX 8 10 0 0
BITMAP
6F
00
30
D0
00
00
10
10
10
7F
ENDCHAR
STARTCHAR 006A
ENCODING 106
SWIDTH 822 0
DWIDTH 8 0
BBX 8 10 0 0
BITMAP
11
11
21
C1
01
00
01
41
41
3E
ENDCHAR
STARTCHAR 006B
ENCODING 107
SWIDTH 822 0
DWIDTH 8 0
BBX 8 10 0 0
BITMAP
51
52
64
90
40
40
50
40
42
41
ENDCHAR
STARTCHAR 006C
ENCODING 108
SWIDTH 822 0
DWIDTH 8 0
BBX 8 10 0 0
BITMAP
50
50
60
80
40
40
40
40
40
7F
ENDCHAR
STARTCHAR 006D
ENCODING 109
SWIDTH 822 0
DWIDTH 8 0
BBX 8 10 0 0
BITMAP
51
73
57
91
41
40
41
41
41
41
ENDCHAR
STARTCHAR 006E
ENCODING 110
SWIDTH 822 0
DWIDTH 8 0
BBX 8 10 0 0
BITMAP
51
71
51
91
41
40
41
43
43
41
ENDCHAR
STARTCHAR 006F
ENCODING 111
SWIDTH 822 0
DWIDTH 8 0
BBX 8 10 0 0
BITMAP
2E
51
61
81
41
40
41
41
41
3E
ENDCHAR
STARTCHAR 0070
ENCODING 112
SWIDTH 822 0
DWIDTH 8 0
BBX 8 10 0 0
BITMAP
6E
51
61
81
40
40
40
40
40
40
ENDCHAR
STARTCHAR 0071
ENCODING 113
SWIDTH 822 0
DWIDTH 8 0
BBX 8 10 0 0
BITMAP
2E
51
61
81
41
40
41
41
43
3F
ENDCHAR
STARTCHAR 0072
ENCODING 114
SWIDTH 822 0
DWIDTH 8 0
BBX 8 10 0 0
BITMAP
6E
51
61
81
40
40
40
42
41
41
ENDCHAR
STARTCHAR 0073
ENCODING 115
SWIDTH 822 0
DWIDTH 8 0
BBX 8 10 0 0
BITMAP
2E
51
60
80
00
00
01
01
41
3E
ENDCHAR
STARTCHAR 0074
ENCODING 116
SWIDTH 822 0
DWIDTH 8 0
BBX 8 10 0 0
BITMAP
6F
00
30
D0
00
00
10
10
10
10
ENDCHAR
STARTCHAR 0075
ENCODING 117
SWIDTH 822 0
DWIDTH 8 0
BBX 8 10 0 0
BITMAP
51
51
61
81
41
40
41
41
41
3E
ENDCHAR
STARTCHAR 0076
ENCODING 118
SWIDTH 822 0
DWIDTH 8 0
BBX 8 10 0 0
BITMAP
51
51
61
81
41
40
41
22
22
1C
ENDCHAR
STARTCHAR 0077
ENCODING 119
SWIDTH 822 0
DWIDTH 8 0
BBX 8 10 0 0
BITMAP
51
51
61
91
41
40
51
73
22
22
ENDCHAR
STARTCHAR 0078
ENCODING 120
SWIDTH 822 0
DWIDTH 8 0
BBX 8 10 0 0
BITMAP
51
51
02
D0
00
00
10
22
41
41
ENDCHAR
STARTCHAR 0079
ENCODING 121
SWIDTH 822 0
DWIDTH 8 0
BBX 8 10 0 0
BITMAP
51
51
61
E2
00
00
10
10
10
10
ENDCHAR
STARTCHAR 007A
ENCODING 122
SWIDTH 822 0
DWIDTH 8 0
BBX 8 10 0 0
BITMAP
6F
11
23
C2
00
00
30
60
40
7F
ENDCHAR
STARTCHAR 007B
ENCODING 123
SWIDTH 308 0
DWIDTH 3 0
BBX 0 0 0 0
BITMAP
ENDCHAR
STARTCHAR 007C
ENCODING 124
SWIDTH 308 0
DWIDTH 3 0
BBX 0 0 0 0
BITMAP
ENDCHAR
STARTCHAR 007D
ENCODING 125
SWIDTH 308 0
DWIDTH 3 0
BBX 0 0 0 0
BITMAP
ENDCHAR
STARTCHAR 007E
ENCODING 126
SWIDTH 617 0
DWIDTH 6 0
BBX 0 0 0 0
BITMAP
ENDCHAR
STARTCHAR 00A0
ENCODING 160
SWIDTH 822 0
DWIDTH 8 0
BBX 4 4 0 1
BITMAP
10
10
20
C0
ENDCHAR
STARTCHAR 00A1
ENCODING 161
SWIDTH 308 0
DWIDTH 3 0
BBX 0 0 0 0
BITMAP
ENDCHAR
STARTCHAR 00A2
ENCODING 162
SWIDTH 617 0
DWIDTH 6 0
BBX 0 0 0 0
BITMAP
ENDCHAR
STARTCHAR 00A3
ENCODING 163
SWIDTH 617 0
DWIDTH 6 0
BBX 0 0 0 0
BITMAP
ENDCHAR
STARTCHAR 00A5
ENCODING 165
SWIDTH 617 0
DWIDTH 6 0
BBX 0 0 0 0
BITMAP
ENDCHAR
STARTCHAR 00A6
ENCODING 166
SWIDTH 308 0
DWIDTH 3 0
BBX 0 0 0 0
BITMAP
ENDCHAR
STARTCHAR 00A7
ENCODING 167
SWIDTH 617 0
DWIDTH 6 0
BBX 0 0 0 0
BITMAP
ENDCHAR
STARTCHAR 00A8
ENCODING 168
SWIDTH 308 0
DWIDTH 3 0
BBX 0 0 0 0
BITMAP
ENDCHAR
STARTCHAR 00A9
ENCODING 169
SWIDTH 720 0
DWIDTH 7 0
BBX 0 0 0 0
BITMAP
ENDCHAR
STARTCHAR 00AA
ENCODING 170
SWIDTH 411 0
DWIDTH 4 0
BBX 0 0 0 0
BITMAP
ENDCHAR
STARTCHAR 00AB
ENCODING 171
SWIDTH 617 0
DWIDTH 6 0
BBX 0 0 0 0
BITMAP
ENDCHAR
STARTCHAR 00AC
ENCODING 172
SWIDTH 617 0
DWIDTH 6 0
BBX 0 0 0 0
BITMAP
ENDCHAR
STARTCHAR 00AD
ENCODING 173
SWIDTH 822 0
DWIDTH 8 0
BBX 8 6 0 1
BITMAP
10
10
20
C0
41
40
ENDCHAR
STARTCHAR 00AE
ENCODING 174
SWIDTH 720 0
DWIDTH 7 0
BBX 0 0 0 0
BITMAP
ENDCHAR
STARTCHAR 00AF
ENCODING 175
SWIDTH 617 0
DWIDTH 6 0
BBX 0 0 0 0
BITMAP
ENDCHAR
STARTCHAR 00B0
ENCODING 176
SWIDTH 411 0
DWIDTH 4 0
BBX 0 0 0 0
BITMAP
ENDCHAR
STARTCHAR 00B1
ENCODING 177
SWIDTH 514 0
DWIDTH 5 0
BBX 0 0 0 0
BITMAP
ENDCHAR
STARTCHAR 00B2
ENCODING 178
SWIDTH 308 0
DWIDTH 3 0
BBX 0 0 0 0
BITMAP
ENDCHAR
STARTCHAR 00B3
ENCODING 179
SWIDTH 308 0
DWIDTH 3 0
BBX 0 0 0 0
BITMAP
ENDCHAR
STARTCHAR 00B4
ENCODING 180
SWIDTH 308 0
DWIDTH 3 0
BBX 0 0 0 0
BITMAP
ENDCHAR
STARTCHAR 00B5
ENCODING 181
SWIDTH 617 0
DWIDTH 6 0
BBX 0 0 0 0
BITMAP
ENDCHAR
STARTCHAR 00B6
ENCODING 182
SWIDTH 514 0
DWIDTH 5 0
BBX 0 0 0 0
BITMAP
ENDCHAR
STARTCHAR 00B7
ENCODING 183
SWIDTH 308 0
DWIDTH 3 0
BBX 0 0 0 0
BITMAP
ENDCHAR
STARTCHAR 00B8
ENCODING 184
SWIDTH 308 0
DWIDTH 3 0
BBX 0 0 0 0
BITMAP
ENDCHAR
STARTCHAR 00B9
ENCODING 185
SWIDTH 308 0
DWIDTH 3 0
BBX 0 0 0 0
BITMAP
ENDCHAR
STARTCHAR 00BA
ENCODING 186
SWIDTH 411 0
DWIDTH 4 0
BBX 0 0 0 0
BITMAP
ENDCHAR
STARTCHAR 00BB
ENCODING 187
SWIDTH 617 0
DWIDTH 6 0
BBX 0 0 0 0
BITMAP
ENDCHAR
STARTCHAR 00BC
ENCODING 188
SWIDTH 822 0
DWIDTH 8 0
BBX 0 0 0 0
BITMAP
ENDCHAR
STARTCHAR 00BD
ENCODING 189
SWIDTH 822 0
DWIDTH 8 0
BBX 0 0 0 0
BITMAP
ENDCHAR
STARTCHAR 00BE
ENCODING 190
SWIDTH 822 0
DWIDTH 8 0
BBX 0 0 0 0
BITMAP
ENDCHAR
STARTCHAR 00BF
ENCODING 191
SWIDTH 617 0
DWIDTH 6 0
BBX 0 0 0 0
BITMAP
ENDCHAR
STARTCHAR 00C0
ENCODING 192
SWIDTH 720 0
DWIDTH 7 0
BBX 0 0 0 0
BITMAP
ENDCHAR
STARTCHAR 00C1
ENCODING 193
SWIDTH 720 0
DWIDTH 7 0
BBX 0 0 0 0
BITMAP
ENDCHAR
STARTCHAR 00C2
ENCODING 194
SWIDTH 720 0
DWIDTH 7 0
BBX 0 0 0 0
BITMAP
ENDCHAR
STARTCHAR 00C3
ENCODING 195
SWIDTH 720 0
DWIDTH 7 0
BBX 0 0 0 0
BITMAP
ENDCHAR
STARTCHAR 00C4
ENCODING 196
SWIDTH 720 0
DWIDTH 7 0
BBX 0 0 0 0
BITMAP
ENDCHAR
STARTCHAR 00C5
ENCODING 197
SWIDTH 720 0
DWIDTH 7 0
BBX 0 0 0 0
BITMAP
ENDCHAR
STARTCHAR 00C6
ENCODING 198
SWIDTH 1028 0
DWIDTH 10 0
BBX 0 0 0 0
BITMAP
ENDCHAR
STARTCHAR 00C7
ENCODING 199
SWIDTH 720 0
DWIDTH 7 0
BBX 0 0 0 0
BITMAP
ENDCHAR
STARTCHAR 00C8
ENCODING 200
SWIDTH 720 0
DWIDTH 7 0
BBX 0 0 0 0
BITMAP
ENDCHAR
STARTCHAR 00C9
ENCODING 201
SWIDTH 720 0
DWIDTH 7 0
BBX 0 0 0 0
BITMAP
ENDCHAR
STARTCHAR 00CA
ENCODING 202
SWIDTH 720 0
DWIDTH 7 0
BBX 0 0 0 0
BITMAP
ENDCHAR
STARTCHAR 00CB
ENCODING 203
SWIDTH 720 0
DWIDTH 7 0
BBX 0 0 0 0
BITMAP
ENDCHAR
STARTCHAR 00CC
ENCODING 204
SWIDTH 308 0
DWIDTH 3 0
BBX 0 0 0 0
BITMAP
ENDCHAR
STARTCHAR 00CD
ENCODING 205
SWIDTH 308 0
DWIDTH 3 0
BBX 0 0 0 0
BITMAP
ENDCHAR
STARTCHAR 00CE
ENCODING 206
SWIDTH 308 0
DWIDTH 3 0
BBX 0 0 0 0
BITMAP
ENDCHAR
STARTCHAR 00CF
ENCODING 207
SWIDTH 308 0
DWIDTH 3 0
BBX 0 0 0 0
BITMAP
ENDCHAR
STARTCHAR 00D0
ENCODING 208
SWIDTH 720 0
DWIDTH 7 0
BBX 0 0 0 0
BITMAP
ENDCHAR
STARTCHAR 00D1
ENCODING 209
SWIDTH 720 0
DWIDTH 7 0
BBX 0 0 0 0
BITMAP
ENDCHAR
STARTCHAR 00D2
ENCODING 210
SWIDTH 822 0
DWIDTH 8 0
BBX 0 0 0 0
BITMAP
ENDCHAR
STARTCHAR 00D3
ENCODING 211
SWIDTH 822 0
DWIDTH 8 0
BBX 0 0 0 0
BITMAP
ENDCHAR
STARTCHAR 00D4
ENCODING 212
SWIDTH 822 0
DWIDTH 8 0
BBX 0 0 0 0
BITMAP
ENDCHAR
STARTCHAR 00D5
ENCODING 213
SWIDTH 822 0
DWIDTH 8 0
BBX 0 0 0 0
BITMAP
ENDCHAR
STARTCHAR 00D6
ENCODING 214
SWIDTH 822 0
DWIDTH 8 0
BBX 0 0 0 0
BITMAP
ENDCHAR
STARTCHAR 00D7
ENCODING 215
SWIDTH 617 0
DWIDTH 6 0
BBX 0 0 0 0
BITMAP
ENDCHAR
STARTCHAR 00D8
ENCODING 216
SWIDTH 822 0
DWIDTH 8 0
BBX 0 0 0 0
BITMAP
ENDCHAR
STARTCHAR 00D9
ENCODING 217
SWIDTH 720 0
DWIDTH 7 0
BBX 0 0 0 0
BITMAP
ENDCHAR
STARTCHAR 00DA
ENCODING 218
SWIDTH 720 0
DWIDTH 7 0
BBX 0 0 0 0
BITMAP
ENDCHAR
STARTCHAR 00DB
ENCODING 219
SWIDTH 720 0
DWIDTH 7 0
BBX 0 0 0 0
BITMAP
ENDCHAR
STARTCHAR 00DC
ENCODING 220
SWIDTH 720 0
DWIDTH 7 0
BBX 0 0 0 0
BITMAP
ENDCHAR
STARTCHAR 00DD
ENCODING 221
SWIDTH 720 0
DWIDTH 7 0
BBX 0 0 0 0
BITMAP
ENDCHAR
STARTCHAR 00DE
ENCODING 222
SWIDTH 720 0
DWIDTH 7 0
BBX 0 0 0 0
BITMAP
ENDCHAR
STARTCHAR 00DF
ENCODING 223
SWIDTH 617 0
DWIDTH 6 0
BBX 0 0 0 0
BITMAP
ENDCHAR
STARTCHAR 00E0
ENCODING 224
SWIDTH 617 0
DWIDTH 6 0
BBX 0 0 0 0
BITMAP
ENDCHAR
STARTCHAR 00E1
ENCODING 225
SWIDTH 617 0
DWIDTH 6 0
BBX 0 0 0 0
BITMAP
ENDCHAR
STARTCHAR 00E2
ENCODING 226
SWIDTH 617 0
DWIDTH 6 0
BBX 0 0 0 0
BITMAP
ENDCHAR
STARTCHAR 00E3
ENCODING 227
SWIDTH 617 0
DWIDTH 6 0
BBX 0 0 0 0
BITMAP
ENDCHAR
STARTCHAR 00E4
ENCODING 228
SWIDTH 617 0
DWIDTH 6 0
BBX 0 0 0 0
BITMAP
ENDCHAR
STARTCHAR 00E5
ENCODING 229
SWIDTH 617 0
DWIDTH 6 0
BBX 0 0 0 0
BITMAP
ENDCHAR
STARTCHAR 00E6
ENCODING 230
SWIDTH 925 0
DWIDTH 9 0
BBX 0 0 0 0
BITMAP
ENDCHAR
STARTCHAR 00E7
ENCODING 231
SWIDTH 514 0
DWIDTH 5 0
BBX 0 0 0 0
BITMAP
ENDCHAR
STARTCHAR 00E8
ENCODING 232
SWIDTH 617 0
DWIDTH 6 0
BBX 0 0 0 0
BITMAP
ENDCHAR
STARTCHAR 00E9
ENCODING 233
SWIDTH 617 0
DWIDTH 6 0
BBX 0 0 0 0
BITMAP
ENDCHAR
STARTCHAR 00EA
ENCODING 234
SWIDTH 617 0
DWIDTH 6 0
BBX 0 0 0 0
BITMAP
ENDCHAR
STARTCHAR 00EB
ENCODING 235
SWIDTH 617 0
DWIDTH 6 0
BBX 0 0 0 0
BITMAP
ENDCHAR
STARTCHAR 00EC
ENCODING 236
SWIDTH 308 0
DWIDTH 3 0
BBX 0 0 0 0
BITMAP
ENDCHAR
STARTCHAR 00ED
ENCODING 237
SWIDTH 308 0
DWIDTH 3 0
BBX 0 0 0 0
BITMAP
ENDCHAR
STARTCHAR 00EE
ENCODING 238
SWIDTH 308 0
DWIDTH 3 0
BBX 0 0 0 0
BITMAP
ENDCHAR
STARTCHAR 00EF
ENCODING 239
SWIDTH 308 0
DWIDTH 3 0
BBX 0 0 0 0
BITMAP
ENDCHAR
STARTCHAR 00F0
ENCODING 240
SWIDTH 617 0
DWIDTH 6 0
BBX 0 0 0 0
BITMAP
ENDCHAR
STARTCHAR 00F1
ENCODING 241
SWIDTH 617 0
DWIDTH 6 0
BBX 0 0 0 0
BITMAP
ENDCHAR
STARTCHAR 00F2
ENCODING 242
SWIDTH 617 0
DWIDTH 6 0
BBX 0 0 0 0
BITMAP
ENDCHAR
STARTCHAR 00F3
ENCODING 243
SWIDTH 617 0
DWIDTH 6 0
BBX 0 0 0 0
BITMAP
ENDCHAR
STARTCHAR 00F4
ENCODING 244
SWIDTH 617 0
DWIDTH 6 0
BBX 0 0 0 0
BITMAP
ENDCHAR
STARTCHAR 00F5
ENCODING 245
SWIDTH 617 0
DWIDTH 6 0
BBX 0 0 0 0
BITMAP
ENDCHAR
STARTCHAR 00F6
ENCODING 246
SWIDTH 617 0
DWIDTH 6 0
BBX 0 0 0 0
BITMAP
ENDCHAR
STARTCHAR 00F7
ENCODING 247
SWIDTH 514 0
DWIDTH 5 0
BBX 0 0 0 0
BITMAP
ENDCHAR
STARTCHAR 00F8
ENCODING 248
SWIDTH 617 0
DWIDTH 6 0
BBX 0 0 0 0
BITMAP
ENDCHAR
STARTCHAR 00F9
ENCODING 249
SWIDTH 617 0
DWIDTH 6 0
BBX 0 0 0 0
BITMAP
ENDCHAR
STARTCHAR 00FA
ENCODING 250
SWIDTH 617 0
DWIDTH 6 0
BBX 0 0 0 0
BITMAP
ENDCHAR
STARTCHAR 00FB
ENCODING 251
SWIDTH 617 0
DWIDTH 6 0
BBX 0 0 0 0
BITMAP
ENDCHAR
STARTCHAR 00FC
ENCODING 252
SWIDTH 617 0
DWIDTH 6 0
BBX 0 0 0 0
BITMAP
ENDCHAR
STARTCHAR 00FD
ENCODING 253
SWIDTH 514 0
DWIDTH 5 0
BBX 0 0 0 0
BITMAP
ENDCHAR
STARTCHAR 00FE
ENCODING 254
SWIDTH 617 0
DWIDTH 6 0
BBX 0 0 0 0
BITMAP
ENDCHAR
STARTCHAR 00FF
ENCODING 255
SWIDTH 514 0
DWIDTH 5 0
BBX 0 0 0 0
BITMAP
ENDCHAR
STARTCHAR 0100
ENCODING 256
SWIDTH 720 0
DWIDTH 7 0
BBX 0 0 0 0
BITMAP
ENDCHAR
STARTCHAR 0101
ENCODING 257
SWIDTH 617 0
DWIDTH 6 0
BBX 0 0 0 0
BITMAP
ENDCHAR
STARTCHAR 0102
ENCODING 258
SWIDTH 720 0
DWIDTH 7 0
BBX 0 0 0 0
BITMAP
ENDCHAR
STARTCHAR 0103
ENCODING 259
SWIDTH 617 0
DWIDTH 6 0
BBX 0 0 0 0
BITMAP
ENDCHAR
STARTCHAR 0104
ENCODING 260
SWIDTH 720 0
DWIDTH 7 0
BBX 0 0 0 0
BITMAP
ENDCHAR
STARTCHAR 0105
ENCODING 261
SWIDTH 617 0
DWIDTH 6 0
BBX 0 0 0 0
BITMAP
ENDCHAR
STARTCHAR 0106
ENCODING 262
SWIDTH 720 0
DWIDTH 7 0
BBX 0 0 0 0
BITMAP
ENDCHAR
STARTCHAR 0107
ENCODING 263
SWIDTH 514 0
DWIDTH 5 0
BBX 0 0 0 0
BITMAP
ENDCHAR
STARTCHAR 0108
ENCODING 264
SWIDTH 720 0
DWIDTH 7 0
BBX 0 0 0 0
BITMAP
ENDCHAR
STARTCHAR 0109
ENCODING 265
SWIDTH 514 0
DWIDTH 5 0
BBX 0 0 0 0
BITMAP
ENDCHAR
STARTCHAR 010A
ENCODING 266
SWIDTH 720 0
DWIDTH 7 0
BBX 0 0 0 0
BITMAP
ENDCHAR
STARTCHAR 010B
ENCODING 267
SWIDTH 514 0
DWIDTH 5 0
BBX 0 0 0 0
BITMAP
ENDCHAR
STARTCHAR 010C
ENCODING 268
SWIDTH 720 0
DWIDTH 7 0
BBX 0 0 0 0
BITMAP
ENDCHAR
STARTCHAR 010D
ENCODING 269
SWIDTH 514 0
DWIDTH 5 0
BBX 0 0 0 0
BITMAP
ENDCHAR
STARTCHAR 010E
ENCODING 270
SWIDTH 720 0
DWIDTH 7 0
BBX 0 0 0 0
BITMAP
ENDCHAR
STARTCHAR 010F
ENCODING 271
SWIDTH 617 0
DWIDTH 6 0
BBX 0 0 0 0
BITMAP
ENDCHAR
STARTCHAR 0110
ENCODING 272
SWIDTH 720 0
DWIDTH 7 0
BBX 0 0 0 0
BITMAP
ENDCHAR
STARTCHAR 0111
ENCODING 273
SWIDTH 617 0
DWIDTH 6 0
BBX 0 0 0 0
BITMAP
ENDCHAR
STARTCHAR 0112
ENCODING 274
SWIDTH 720 0
DWIDTH 7 0
BBX 0 0 0 0
BITMAP
ENDCHAR
STARTCHAR 0113
ENCODING 275
SWIDTH 617 0
DWIDTH 6 0
BBX 0 0 0 0
BITMAP
ENDCHAR
STARTCHAR 0114
ENCODING 276
SWIDTH 720 0
DWIDTH 7 0
BBX 0 0 0 0
BITMAP
ENDCHAR
STARTCHAR 0115
ENCODING 277
SWIDTH 617 0
DWIDTH 6 0
BBX 0 0 0 0
BITMAP
ENDCHAR
STARTCHAR 0116
ENCODING 278
SWIDTH 720 0
DWIDTH 7 0
BBX 0 0 0 0
BITMAP
ENDCHAR
STARTCHAR 0117
ENCODING 279
SWIDTH 617 0
DWIDTH 6 0
BBX 0 0 0 0
BITMAP
ENDCHAR
STARTCHAR 0118
ENCODING 280
SWIDTH 720 0
DWIDTH 7 0
BBX 0 0 0 0
BITMAP
ENDCHAR
STARTCHAR 0119
ENCODING 281
SWIDTH 617 0
DWIDTH 6 0
BBX 0 0 0 0
BITMAP
ENDCHAR
STARTCHAR 011A
ENCODING 282
SWIDTH 720 0
DWIDTH 7 0
BBX 0 0 0 0
BITMAP
ENDCHAR
STARTCHAR 011B
ENCODING 283
SWIDTH 617 0
DWIDTH 6 0
BBX 0 0 0 0
BITMAP
ENDCHAR
STARTCHAR 011C
ENCODING 284
SWIDTH 822 0
DWIDTH 8 0
BBX 0 0 0 0
BITMAP
ENDCHAR
STARTCHAR 011D
ENCODING 285
SWIDTH 617 0
DWIDTH 6 0
BBX 0 0 0 0
BITMAP
ENDCHAR
STARTCHAR 011E
ENCODING 286
SWIDTH 822 0
DWIDTH 8 0
BBX 0 0 0 0
BITMAP
ENDCHAR
STARTCHAR 011F
ENCODING 287
SWIDTH 617 0
DWIDTH 6 0
BBX 0 0 0 0
BITMAP
ENDCHAR
STARTCHAR 0120
ENCODING 288
SWIDTH 822 0
DWIDTH 8 0
BBX 0 0 0 0
BITMAP
ENDCHAR
STARTCHAR 0121
ENCODING 289
SWIDTH 617 0
DWIDTH 6 0
BBX 0 0 0 0
BITMAP
ENDCHAR
STARTCHAR 0122
ENCODING 290
SWIDTH 822 0
DWIDTH 8 0
BBX 0 0 0 0
BITMAP
ENDCHAR
STARTCHAR 0123
ENCODING 291
SWIDTH 617 0
DWIDTH 6 0
BBX 0 0 0 0
BITMAP
ENDCHAR
STARTCHAR 0124
ENCODING 292
SWIDTH 720 0
DWIDTH 7 0
BBX 0 0 0 0
BITMAP
ENDCHAR
STARTCHAR 0125
ENCODING 293
SWIDTH 617 0
DWIDTH 6 0
BBX 0 0 0 0
BITMAP
ENDCHAR
STARTCHAR 0126
ENCODING 294
SWIDTH 720 0
DWIDTH 7 0
BBX 0 0 0 0
BITMAP
ENDCHAR
STARTCHAR 0127
ENCODING 295
SWIDTH 617 0
DWIDTH 6 0
BBX 0 0 0 0
BITMAP
ENDCHAR
STARTCHAR 0128
ENCODING 296
SWIDTH 308 0
DWIDTH 3 0
BBX 0 0 0 0
BITMAP
ENDCHAR
STARTCHAR 0129
ENCODING 297
SWIDTH 308 0
DWIDTH 3 0
BBX 0 0 0 0
BITMAP
ENDCHAR
STARTCHAR 012A
ENCODING 298
SWIDTH 308 0
DWIDTH 3 0
BBX 0 0 0 0
BITMAP
ENDCHAR
STARTCHAR 012B
ENCODING 299
SWIDTH 308 0
DWIDTH 3 0
BBX 0 0 0 0
BITMAP
ENDCHAR
STARTCHAR 012C
ENCODING 300
SWIDTH 308 0
DWIDTH 3 0
BBX 0 0 0 0
BITMAP
ENDCHAR
STARTCHAR 012D
ENCODING 301
SWIDTH 308 0
DWIDTH 3 0
BBX 0 0 0 0
BITMAP
ENDCHAR
STARTCHAR 012E
ENCODING 302
SWIDTH 308 0
DWIDTH 3 0
BBX 0 0 0 0
BITMAP
ENDCHAR
STARTCHAR 012F
ENCODING 303
SWIDTH 205 0
DWIDTH 2 0
BBX 0 0 0 0
BITMAP
ENDCHAR
STARTCHAR 0130
ENCODING 304
SWIDTH 308 0
DWIDTH 3 0
BBX 0 0 0 0
BITMAP
ENDCHAR
STARTCHAR 0131
ENCODING 305
SWIDTH 308 0
DWIDTH 3 0
BBX 0 0 0 0
BITMAP
ENDCHAR
STARTCHAR 0132
ENCODING 306
SWIDTH 720 0
DWIDTH 7 0
BBX 0 0 0 0
BITMAP
ENDCHAR
STARTCHAR 0133
ENCODING 307
SWIDTH 411 0
DWIDTH 4 0
BBX 0 0 0 0
BITMAP
ENDCHAR
STARTCHAR 0134
ENCODING 308
SWIDTH 514 0
DWIDTH 5 0
BBX 0 0 0 0
BITMAP
ENDCHAR
STARTCHAR 0135
ENCODING 309
SWIDTH 205 0
DWIDTH 2 0
BBX 0 0 0 0
BITMAP
ENDCHAR
STARTCHAR 0136
ENCODING 310
SWIDTH 720 0
DWIDTH 7 0
BBX 0 0 0 0
BITMAP
ENDCHAR
STARTCHAR 0137
ENCODING 311
SWIDTH 514 0
DWIDTH 5 0
BBX 0 0 0 0
BITMAP
ENDCHAR
STARTCHAR 0138
ENCODING 312
SWIDTH 514 0
DWIDTH 5 0
BBX 0 0 0 0
BITMAP
ENDCHAR
STARTCHAR 0139
ENCODING 313
SWIDTH 617 0
DWIDTH 6 0
BBX 0 0 0 0
BITMAP
ENDCHAR
STARTCHAR 013A
ENCODING 314
SWIDTH 205 0
DWIDTH 2 0
BBX 0 0 0 0
BITMAP
ENDCHAR
STARTCHAR 013B
ENCODING 315
SWIDTH 617 0
DWIDTH 6 0
BBX 0 0 0 0
BITMAP
ENDCHAR
STARTCHAR 013C
ENCODING 316
SWIDTH 205 0
DWIDTH 2 0
BBX 0 0 0 0
BITMAP
ENDCHAR
STARTCHAR 013D
ENCODING 317
SWIDTH 617 0
DWIDTH 6 0
BBX 0 0 0 0
BITMAP
ENDCHAR
STARTCHAR 013E
ENCODING 318
SWIDTH 308 0
DWIDTH 3 0
BBX 0 0 0 0
BITMAP
ENDCHAR
STARTCHAR 013F
ENCODING 319
SWIDTH 617 0
DWIDTH 6 0
BBX 0 0 0 0
BITMAP
ENDCHAR
STARTCHAR 0140
ENCODING 320
SWIDTH 308 0
DWIDTH 3 0
BBX 0 0 0 0
BITMAP
ENDCHAR
STARTCHAR 0141
ENCODING 321
SWIDTH 617 0
DWIDTH 6 0
BBX 0 0 0 0
BITMAP
ENDCHAR
STARTCHAR 0142
ENCODING 322
SWIDTH 205 0
DWIDTH 2 0
BBX 0 0 0 0
BITMAP
ENDCHAR
STARTCHAR 0143
ENCODING 323
SWIDTH 720 0
DWIDTH 7 0
BBX 0 0 0 0
BITMAP
ENDCHAR
STARTCHAR 0144
ENCODING 324
SWIDTH 617 0
DWIDTH 6 0
BBX 0 0 0 0
BITMAP
ENDCHAR
STARTCHAR 0145
ENCODING 325
SWIDTH 720 0
DWIDTH 7 0
BBX 0 0 0 0
BITMAP
ENDCHAR
STARTCHAR 0146
ENCODING 326
SWIDTH 617 0
DWIDTH 6 0
BBX 0 0 0 0
BITMAP
ENDCHAR
STARTCHAR 0147
ENCODING 327
SWIDTH 720 0
DWIDTH 7 0
BBX 0 0 0 0
BITMAP
ENDCHAR
STARTCHAR 0148
ENCODING 328
SWIDTH 617 0
DWIDTH 6 0
BBX 0 0 0 0
BITMAP
ENDCHAR
STARTCHAR 0149
ENCODING 329
SWIDTH 617 0
DWIDTH 6 0
BBX 0 0 0 0
BITMAP
ENDCHAR
STARTCHAR 014A
ENCODING 330
SWIDTH 720 0
DWIDTH 7 0
BBX 0 0 0 0
BITMAP
ENDCHAR
STARTCHAR 014B
ENCODING 331
SWIDTH 617 0
DWIDTH 6 0
BBX 0 0 0 0
BITMAP
ENDCHAR
STARTCHAR 014C
ENCODING 332
SWIDTH 822 0
DWIDTH 8 0
BBX 0 0 0 0
BITMAP
ENDCHAR
STARTCHAR 014D
ENCODING 333
SWIDTH 617 0
DWIDTH 6 0
BBX 0 0 0 0
BITMAP
ENDCHAR
STARTCHAR 014E
ENCODING 334
SWIDTH 822 0
DWIDTH 8 0
BBX 0 0 0 0
BITMAP
ENDCHAR
STARTCHAR 014F
ENCODING 335
SWIDTH 617 0
DWIDTH 6 0
BBX 0 0 0 0
BITMAP
ENDCHAR
STARTCHAR 0150
ENCODING 336
SWIDTH 822 0
DWIDTH 8 0
BBX 0 0 0 0
BITMAP
ENDCHAR
STARTCHAR 0151
ENCODING 337
SWIDTH 617 0
DWIDTH 6 0
BBX 0 0 0 0
BITMAP
ENDCHAR
STARTCHAR 0152
ENCODING 338
SWIDTH 1028 0
DWIDTH 10 0
BBX 0 0 0 0
BITMAP
ENDCHAR
STARTCHAR 0153
ENCODING 339
SWIDTH 925 0
DWIDTH 9 0
BBX 0 0 0 0
BITMAP
ENDCHAR
STARTCHAR 0154
ENCODING 340
SWIDTH 720 0
DWIDTH 7 0
BBX 0 0 0 0
BITMAP
ENDCHAR
STARTCHAR 0155
ENCODING 341
SWIDTH 308 0
DWIDTH 3 0
BBX 0 0 0 0
BITMAP
ENDCHAR
STARTCHAR 0156
ENCODING 342
SWIDTH 720 0
DWIDTH 7 0
BBX 0 0 0 0
BITMAP
ENDCHAR
STARTCHAR 0157
ENCODING 343
SWIDTH 308 0
DWIDTH 3 0
BBX 0 0 0 0
BITMAP
ENDCHAR
STARTCHAR 0158
ENCODING 344
SWIDTH 720 0
DWIDTH 7 0
BBX 0 0 0 0
BITMAP
ENDCHAR
STARTCHAR 0159
ENCODING 345
SWIDTH 308 0
DWIDTH 3 0
BBX 0 0 0 0
BITMAP
ENDCHAR
STARTCHAR 015A
ENCODING 346
SWIDTH 720 0
DWIDTH 7 0
BBX 0 0 0 0
BITMAP
ENDCHAR
STARTCHAR 015B
ENCODING 347
SWIDTH 514 0
DWIDTH 5 0
BBX 0 0 0 0
BITMAP
ENDCHAR
STARTCHAR 015C
ENCODING 348
SWIDTH 720 0
DWIDTH 7 0
BBX 0 0 0 0
BITMAP
ENDCHAR
STARTCHAR 015D
ENCODING 349
SWIDTH 514 0
DWIDTH 5 0
BBX 0 0 0 0
BITMAP
ENDCHAR
STARTCHAR 015E
ENCODING 350
SWIDTH 720 0
DWIDTH 7 0
BBX 0 0 0 0
BITMAP
ENDCHAR
STARTCHAR 015F
ENCODING 351
SWIDTH 514 0
DWIDTH 5 0
BBX 0 0 0 0
BITMAP
ENDCHAR
STARTCHAR 0160
ENCODING 352
SWIDTH 720 0
DWIDTH 7 0
BBX 0 0 0 0
BITMAP
ENDCHAR
STARTCHAR 0161
ENCODING 353
SWIDTH 514 0
DWIDTH 5 0
BBX 0 0 0 0
BITMAP
ENDCHAR
STARTCHAR 0162
ENCODING 354
SWIDTH 617 0
DWIDTH 6 0
BBX 0 0 0 0
BITMAP
ENDCHAR
STARTCHAR 0163
ENCODING 355
SWIDTH 308 0
DWIDTH 3 0
BBX 0 0 0 0
BITMAP
ENDCHAR
STARTCHAR 0164
ENCODING 356
SWIDTH 617 0
DWIDTH 6 0
BBX 0 0 0 0
BITMAP
ENDCHAR
STARTCHAR 0165
ENCODING 357
SWIDTH 411 0
DWIDTH 4 0
BBX 0 0 0 0
BITMAP
ENDCHAR
STARTCHAR 0166
ENCODING 358
SWIDTH 617 0
DWIDTH 6 0
BBX 0 0 0 0
BITMAP
ENDCHAR
STARTCHAR 0167
ENCODING 359
SWIDTH 308 0
DWIDTH 3 0
BBX 0 0 0 0
BITMAP
ENDCHAR
STARTCHAR 0168
ENCODING 360
SWIDTH 720 0
DWIDTH 7 0
BBX 0 0 0 0
BITMAP
ENDCHAR
STARTCHAR 0169
ENCODING 361
SWIDTH 617 0
DWIDTH 6 0
BBX 0 0 0 0
BITMAP
ENDCHAR
STARTCHAR 016A
ENCODING 362
SWIDTH 720 0
DWIDTH 7 0
BBX 0 0 0 0
BITMAP
ENDCHAR
STARTCHAR 016B
ENCODING 363
SWIDTH 617 0
DWIDTH 6 0
BBX 0 0 0 0
BITMAP
ENDCHAR
STARTCHAR 016C
ENCODING 364
SWIDTH 720 0
DWIDTH 7 0
BBX 0 0 0 0
BITMAP
ENDCHAR
STARTCHAR 016D
ENCODING 365
SWIDTH 617 0
DWIDTH 6 0
BBX 0 0 0 0
BITMAP
ENDCHAR
STARTCHAR 016E
ENCODING 366
SWIDTH 720 0
DWIDTH 7 0
BBX 0 0 0 0
BITMAP
ENDCHAR
STARTCHAR 016F
ENCODING 367
SWIDTH 617 0
DWIDTH 6 0
BBX 0 0 0 0
BITMAP
ENDCHAR
STARTCHAR 0170
ENCODING 368
SWIDTH 720 0
DWIDTH 7 0
BBX 0 0 0 0
BITMAP
ENDCHAR
STARTCHAR 0171
ENCODING 369
SWIDTH 617 0
DWIDTH 6 0
BBX 0 0 0 0
BITMAP
ENDCHAR
STARTCHAR 0172
ENCODING 370
SWIDTH 720 0
DWIDTH 7 0
BBX 0 0 0 0
BITMAP
ENDCHAR
STARTCHAR 0173
ENCODING 371
SWIDTH 617 0
DWIDTH 6 0
BBX 0 0 0 0
BITMAP
ENDCHAR
STARTCHAR 0174
ENCODING 372
SWIDTH 925 0
DWIDTH 9 0
BBX 0 0 0 0
BITMAP
ENDCHAR
STARTCHAR 0175
ENCODING 373
SWIDTH 720 0
DWIDTH 7 0
BBX 0 0 0 0
BITMAP
ENDCHAR
STARTCHAR 0176
ENCODING 374
SWIDTH 720 0
DWIDTH 7 0
BBX 0 0 0 0
BITMAP
ENDCHAR
STARTCHAR 0177
ENCODING 375
SWIDTH 514 0
DWIDTH 5 0
BBX 0 0 0 0
BITMAP
ENDCHAR
STARTCHAR 0178
ENCODING 376
SWIDTH 720 0
DWIDTH 7 0
BBX 0 0 0 0
BITMAP
ENDCHAR
STARTCHAR 0179
ENCODING 377
SWIDTH 617 0
DWIDTH 6 0
BBX 0 0 0 0
BITMAP
ENDCHAR
STARTCHAR 017A
ENCODING 378
SWIDTH 514 0
DWIDTH 5 0
BBX 0 0 0 0
BITMAP
ENDCHAR
STARTCHAR 017B
ENCODING 379
SWIDTH 617 0
DWIDTH 6 0
BBX 0 0 0 0
BITMAP
ENDCHAR
STARTCHAR 017C
ENCODING 380
SWIDTH 514 0
DWIDTH 5 0
BBX 0 0 0 0
BITMAP
ENDCHAR
STARTCHAR 017D
ENCODING 381
SWIDTH 617 0
DWIDTH 6 0
BBX 0 0 0 0
BITMAP
ENDCHAR
STARTCHAR 017E
ENCODING 382
SWIDTH 514 0
DWIDTH 5 0
BBX 0 0 0 0
BITMAP
ENDCHAR
STARTCHAR 017F
ENCODING 383
SWIDTH 205 0
DWIDTH 2 0
BBX 0 0 0 0
BITMAP
ENDCHAR
STARTCHAR 0192
ENCODING 402
SWIDTH 617 0
DWIDTH 6 0
BBX 0 0 0 0
BITMAP
ENDCHAR
STARTCHAR 01FA
ENCODING 506
SWIDTH 720 0
DWIDTH 7 0
BBX 0 0 0 0
BITMAP
ENDCHAR
STARTCHAR 01FB
ENCODING 507
SWIDTH 617 0
DWIDTH 6 0
BBX 0 0 0 0
BITMAP
ENDCHAR
STARTCHAR 01FC
ENCODING 508
SWIDTH 1028 0
DWIDTH 10 0
BBX 0 0 0 0
BITMAP
ENDCHAR
STARTCHAR 01FD
ENCODING 509
SWIDTH 925 0
DWIDTH 9 0
BBX 0 0 0 0
BITMAP
ENDCHAR
STARTCHAR 01FE
ENCODING 510
SWIDTH 822 0
DWIDTH 8 0
BBX 0 0 0 0
BITMAP
ENDCHAR
STARTCHAR 01FF
ENCODING 511
SWIDTH 617 0
DWIDTH 6 0
BBX 0 0 0 0
BITMAP
ENDCHAR
STARTCHAR 02C6
ENCODING 710
SWIDTH 308 0
DWIDTH 3 0
BBX 0 0 0 0
BITMAP
ENDCHAR
STARTCHAR 02C7
ENCODING 711
SWIDTH 308 0
DWIDTH 3 0
BBX 0 0 0 0
BITMAP
ENDCHAR
STARTCHAR 02C9
ENCODING 713
SWIDTH 308 0
DWIDTH 3 0
BBX 0 0 0 0
BITMAP
ENDCHAR
STARTCHAR 02D8
ENCODING 728
SWIDTH 308 0
DWIDTH 3 0
BBX 0 0 0 0
BITMAP
ENDCHAR
STARTCHAR 02D9
ENCODING 729
SWIDTH 308 0
DWIDTH 3 0
BBX 0 0 0 0
BITMAP
ENDCHAR
STARTCHAR 02DA
ENCODING 730
SWIDTH 308 0
DWIDTH 3 0
BBX 0 0 0 0
BITMAP
ENDCHAR
STARTCHAR 02DB
ENCODING 731
SWIDTH 308 0
DWIDTH 3 0
BBX 0 0 0 0
BITMAP
ENDCHAR
STARTCHAR 02DC
ENCODING 732
SWIDTH 308 0
DWIDTH 3 0
BBX 0 0 0 0
BITMAP
ENDCHAR
STARTCHAR 02DD
ENCODING 733
SWIDTH 308 0
DWIDTH 3 0
BBX 0 0 0 0
BITMAP
ENDCHAR
STARTCHAR 037E
ENCODING 894
SWIDTH 822 0
DWIDTH 8 0
BBX 4 10 0 0
BITMAP
10
10
10
F0
00
00
00
30
30
10
ENDCHAR
STARTCHAR 0384
ENCODING 900
SWIDTH 308 0
DWIDTH 3 0
BBX 0 0 0 0
BITMAP
ENDCHAR
STARTCHAR 0385
ENCODING 901
SWIDTH 308 0
DWIDTH 3 0
BBX 0 0 0 0
BITMAP
ENDCHAR
STARTCHAR 0386
ENCODING 902
SWIDTH 720 0
DWIDTH 7 0
BBX 0 0 0 0
BITMAP
ENDCHAR
STARTCHAR 0387
ENCODING 903
SWIDTH 308 0
DWIDTH 3 0
BBX 0 0 0 0
BITMAP
ENDCHAR
STARTCHAR 0388
ENCODING 904
SWIDTH 822 0
DWIDTH 8 0
BBX 0 0 0 0
BITMAP
ENDCHAR
STARTCHAR 0389
ENCODING 905
SWIDTH 822 0
DWIDTH 8 0
BBX 0 0 0 0
BITMAP
ENDCHAR
STARTCHAR 038A
ENCODING 906
SWIDTH 411 0
DWIDTH 4 0
BBX 0 0 0 0
BITMAP
ENDCHAR
STARTCHAR 038C
ENCODING 908
SWIDTH 822 0
DWIDTH 8 0
BBX 0 0 0 0
BITMAP
ENDCHAR
STARTCHAR 038E
ENCODING 910
SWIDTH 925 0
DWIDTH 9 0
BBX 0 0 0 0
BITMAP
ENDCHAR
STARTCHAR 038F
ENCODING 911
SWIDTH 822 0
DWIDTH 8 0
BBX 0 0 0 0
BITMAP
ENDCHAR
STARTCHAR 0390
ENCODING 912
SWIDTH 205 0
DWIDTH 2 0
BBX 0 0 0 0
BITMAP
ENDCHAR
STARTCHAR 0391
ENCODING 913
SWIDTH 720 0
DWIDTH 7 0
BBX 0 0 0 0
BITMAP
ENDCHAR
STARTCHAR 0392
ENCODING 914
SWIDTH 720 0
DWIDTH 7 0
BBX 0 0 0 0
BITMAP
ENDCHAR
STARTCHAR 0393
ENCODING 915
SWIDTH 617 0
DWIDTH 6 0
BBX 0 0 0 0
BITMAP
ENDCHAR
STARTCHAR 0394
ENCODING 916
SWIDTH 720 0
DWIDTH 7 0
BBX 0 0 0 0
BITMAP
ENDCHAR
STARTCHAR 0395
ENCODING 917
SWIDTH 720 0
DWIDTH 7 0
BBX 0 0 0 0
BITMAP
ENDCHAR
STARTCHAR 0396
ENCODING 918
SWIDTH 617 0
DWIDTH 6 0
BBX 0 0 0 0
BITMAP
ENDCHAR
STARTCHAR 0397
ENCODING 919
SWIDTH 720 0
DWIDTH 7 0
BBX 0 0 0 0
BITMAP
ENDCHAR
STARTCHAR 0398
ENCODING 920
SWIDTH 822 0
DWIDTH 8 0
BBX 0 0 0 0
BITMAP
ENDCHAR
STARTCHAR 0399
ENCODING 921
SWIDTH 308 0
DWIDTH 3 0
BBX 0 0 0 0
BITMAP
ENDCHAR
STARTCHAR 039A
ENCODING 922
SWIDTH 720 0
DWIDTH 7 0
BBX 0 0 0 0
BITMAP
ENDCHAR
STARTCHAR 039B
ENCODING 923
SWIDTH 720 0
DWIDTH 7 0
BBX 0 0 0 0
BITMAP
ENDCHAR
STARTCHAR 039C
ENCODING 924
SWIDTH 822 0
DWIDTH 8 0
BBX 0 0 0 0
BITMAP
ENDCHAR
STARTCHAR 039D
ENCODING 925
SWIDTH 720 0
DWIDTH 7 0
BBX 0 0 0 0
BITMAP
ENDCHAR
STARTCHAR 039E
ENCODING 926
SWIDTH 720 0
DWIDTH 7 0
BBX 0 0 0 0
BITMAP
ENDCHAR
STARTCHAR 039F
ENCODING 927
SWIDTH 822 0
DWIDTH 8 0
BBX 0 0 0 0
BITMAP
ENDCHAR
STARTCHAR 03A0
ENCODING 928
SWIDTH 720 0
DWIDTH 7 0
BBX 0 0 0 0
BITMAP
ENDCHAR
STARTCHAR 03A1
ENCODING 929
SWIDTH 720 0
DWIDTH 7 0
BBX 0 0 0 0
BITMAP
ENDCHAR
STARTCHAR 03A3
ENCODING 931
SWIDTH 617 0
DWIDTH 6 0
BBX 0 0 0 0
BITMAP
ENDCHAR
STARTCHAR 03A4
ENCODING 932
SWIDTH 617 0
DWIDTH 6 0
BBX 0 0 0 0
BITMAP
ENDCHAR
STARTCHAR 03A5
ENCODING 933
SWIDTH 720 0
DWIDTH 7 0
BBX 0 0 0 0
BITMAP
ENDCHAR
STARTCHAR 03A6
ENCODING 934
SWIDTH 822 0
DWIDTH 8 0
BBX 0 0 0 0
BITMAP
ENDCHAR
STARTCHAR 03A7
ENCODING 935
SWIDTH 720 0
DWIDTH 7 0
BBX 0 0 0 0
BITMAP
ENDCHAR
STARTCHAR 03A8
ENCODING 936
SWIDTH 822 0
DWIDTH 8 0
BBX 0 0 0 0
BITMAP
ENDCHAR
STARTCHAR 03A9
ENCODING 937
SWIDTH 720 0
DWIDTH 7 0
BBX 0 0 0 0
BITMAP
ENDCHAR
STARTCHAR 03AA
ENCODING 938
SWIDTH 308 0
DWIDTH 3 0
BBX 0 0 0 0
BITMAP
ENDCHAR
STARTCHAR 03AB
ENCODING 939
SWIDTH 720 0
DWIDTH 7 0
BBX 0 0 0 0
BITMAP
ENDCHAR
STARTCHAR 03AC
ENCODING 940
SWIDTH 617 0
DWIDTH 6 0
BBX 0 0 0 0
BITMAP
ENDCHAR
STARTCHAR 03AD
ENCODING 941
SWIDTH 411 0
DWIDTH 4 0
BBX 0 0 0 0
BITMAP
ENDCHAR
STARTCHAR 03AE
ENCODING 942
SWIDTH 617 0
DWIDTH 6 0
BBX 0 0 0 0
BITMAP
ENDCHAR
STARTCHAR 03AF
ENCODING 943
SWIDTH 205 0
DWIDTH 2 0
BBX 0 0 0 0
BITMAP
ENDCHAR
STARTCHAR 03B0
ENCODING 944
SWIDTH 514 0
DWIDTH 5 0
BBX 0 0 0 0
BITMAP
ENDCHAR
STARTCHAR 03B1
ENCODING 945
SWIDTH 617 0
DWIDTH 6 0
BBX 0 0 0 0
BITMAP
ENDCHAR
STARTCHAR 03B2
ENCODING 946
SWIDTH 617 0
DWIDTH 6 0
BBX 0 0 0 0
BITMAP
ENDCHAR
STARTCHAR 03B3
ENCODING 947
SWIDTH 514 0
DWIDTH 5 0
BBX 0 0 0 0
BITMAP
ENDCHAR
STARTCHAR 03B4
ENCODING 948
SWIDTH 617 0
DWIDTH 6 0
BBX 0 0 0 0
BITMAP
ENDCHAR
STARTCHAR 03B5
ENCODING 949
SWIDTH 411 0
DWIDTH 4 0
BBX 0 0 0 0
BITMAP
ENDCHAR
STARTCHAR 03B6
ENCODING 950
SWIDTH 411 0
DWIDTH 4 0
BBX 0 0 0 0
BITMAP
ENDCHAR
STARTCHAR 03B7
ENCODING 951
SWIDTH 617 0
DWIDTH 6 0
BBX 0 0 0 0
BITMAP
ENDCHAR
STARTCHAR 03B8
ENCODING 952
SWIDTH 617 0
DWIDTH 6 0
BBX 0 0 0 0
BITMAP
ENDCHAR
STARTCHAR 03B9
ENCODING 953
SWIDTH 205 0
DWIDTH 2 0
BBX 0 0 0 0
BITMAP
ENDCHAR
STARTCHAR 03BA
ENCODING 954
SWIDTH 514 0
DWIDTH 5 0
BBX 0 0 0 0
BITMAP
ENDCHAR
STARTCHAR 03BB
ENCODING 955
SWIDTH 514 0
DWIDTH 5 0
BBX 0 0 0 0
BITMAP
ENDCHAR
STARTCHAR 03BC
ENCODING 956
SWIDTH 617 0
DWIDTH 6 0
BBX 0 0 0 0
BITMAP
ENDCHAR
STARTCHAR 03BD
ENCODING 957
SWIDTH 514 0
DWIDTH 5 0
BBX 0 0 0 0
BITMAP
ENDCHAR
STARTCHAR 03BE
ENCODING 958
SWIDTH 411 0
DWIDTH 4 0
BBX 0 0 0 0
BITMAP
ENDCHAR
STARTCHAR 03BF
ENCODING 959
SWIDTH 617 0
DWIDTH 6 0
BBX 0 0 0 0
BITMAP
ENDCHAR
STARTCHAR 03C0
ENCODING 960
SWIDTH 720 0
DWIDTH 7 0
BBX 0 0 0 0
BITMAP
ENDCHAR
STARTCHAR 03C1
ENCODING 961
SWIDTH 617 0
DWIDTH 6 0
BBX 0 0 0 0
BITMAP
ENDCHAR
STARTCHAR 03C2
ENCODING 962
SWIDTH 514 0
DWIDTH 5 0
BBX 0 0 0 0
BITMAP
ENDCHAR
STARTCHAR 03C3
ENCODING 963
SWIDTH 617 0
DWIDTH 6 0
BBX 0 0 0 0
BITMAP
ENDCHAR
STARTCHAR 03C4
ENCODING 964
SWIDTH 411 0
DWIDTH 4 0
BBX 0 0 0 0
BITMAP
ENDCHAR
STARTCHAR 03C5
ENCODING 965
SWIDTH 514 0
DWIDTH 5 0
BBX 0 0 0 0
BITMAP
ENDCHAR
STARTCHAR 03C6
ENCODING 966
SWIDTH 720 0
DWIDTH 7 0
BBX 0 0 0 0
BITMAP
ENDCHAR
STARTCHAR 03C7
ENCODING 967
SWIDTH 514 0
DWIDTH 5 0
BBX 0 0 0 0
BITMAP
ENDCHAR
STARTCHAR 03C8
ENCODING 968
SWIDTH 720 0
DWIDTH 7 0
BBX 0 0 0 0
BITMAP
ENDCHAR
STARTCHAR 03C9
ENCODING 969
SWIDTH 822 0
DWIDTH 8 0
BBX 0 0 0 0
BITMAP
ENDCHAR
STARTCHAR 03CA
ENCODING 970
SWIDTH 205 0
DWIDTH 2 0
BBX 0 0 0 0
BITMAP
ENDCHAR
STARTCHAR 03CB
ENCODING 971
SWIDTH 514 0
DWIDTH 5 0
BBX 0 0 0 0
BITMAP
ENDCHAR
STARTCHAR 03CC
ENCODING 972
SWIDTH 617 0
DWIDTH 6 0
BBX 0 0 0 0
BITMAP
ENDCHAR
STARTCHAR 03CD
ENCODING 973
SWIDTH 514 0
DWIDTH 5 0
BBX 0 0 0 0
BITMAP
ENDCHAR
STARTCHAR 03CE
ENCODING 974
SWIDTH 822 0
DWIDTH 8 0
BBX 0 0 0 0
BITMAP
ENDCHAR
STARTCHAR 1E80
ENCODING 7808
SWIDTH 925 0
DWIDTH 9 0
BBX 0 0 0 0
BITMAP
ENDCHAR
STARTCHAR 1E81
ENCODING 7809
SWIDTH 720 0
DWIDTH 7 0
BBX 0 0 0 0
BITMAP
ENDCHAR
STARTCHAR 1E82
ENCODING 7810
SWIDTH 925 0
DWIDTH 9 0
BBX 0 0 0 0
BITMAP
ENDCHAR
STARTCHAR 1E83
ENCODING 7811
SWIDTH 720 0
DWIDTH 7 0
BBX 0 0 0 0
BITMAP
ENDCHAR
STARTCHAR 1E84
ENCODING 7812
SWIDTH 925 0
DWIDTH 9 0
BBX 0 0 0 0
BITMAP
ENDCHAR
STARTCHAR 1E85
ENCODING 7813
SWIDTH 720 0
DWIDTH 7 0
BBX 0 0 0 0
BITMAP
ENDCHAR
STARTCHAR 1EF2
ENCODING 7922
SWIDTH 720 0
DWIDTH 7 0
BBX 0 0 0 0
BITMAP
ENDCHAR
STARTCHAR 1EF3
ENCODING 7923
SWIDTH 514 0
DWIDTH 5 0
BBX 0 0 0 0
BITMAP
ENDCHAR
STARTCHAR 2013
ENCODING 8211
SWIDTH 617 0
DWIDTH 6 0
BBX 0 0 0 0
BITMAP
ENDCHAR
STARTCHAR 2014
ENCODING 8212
SWIDTH 1028 0
DWIDTH 10 0
BBX 0 0 0 0
BITMAP
ENDCHAR
STARTCHAR 2017
ENCODING 8215
SWIDTH 617 0
DWIDTH 6 0
BBX 0 0 0 0
BITMAP
ENDCHAR
STARTCHAR 2018
ENCODING 8216
SWIDTH 205 0
DWIDTH 2 0
BBX 0 0 0 0
BITMAP
ENDCHAR
STARTCHAR 2019
ENCODING 8217
SWIDTH 205 0
DWIDTH 2 0
BBX 0 0 0 0
BITMAP
ENDCHAR
STARTCHAR 201A
ENCODING 8218
SWIDTH 205 0
DWIDTH 2 0
BBX 0 0 0 0
BITMAP
ENDCHAR
STARTCHAR 201B
ENCODING 8219
SWIDTH 205 0
DWIDTH 2 0
BBX 0 0 0 0
BITMAP
ENDCHAR
STARTCHAR 201C
ENCODING 8220
SWIDTH 308 0
DWIDTH 3 0
BBX 0 0 0 0
BITMAP
ENDCHAR
STARTCHAR 201D
ENCODING 8221
SWIDTH 308 0
DWIDTH 3 0
BBX 0 0 0 0
BITMAP
ENDCHAR
STARTCHAR 201E
ENCODING 8222
SWIDTH 308 0
DWIDTH 3 0
BBX 0 0 0 0
BITMAP
ENDCHAR
STARTCHAR 2020
ENCODING 8224
SWIDTH 617 0
DWIDTH 6 0
BBX 0 0 0 0
BITMAP
ENDCHAR
STARTCHAR 2021
ENCODING 8225
SWIDTH 617 0
DWIDTH 6 0
BBX 0 0 0 0
BITMAP
ENDCHAR
STARTCHAR 2022
ENCODING 8226
SWIDTH 411 0
DWIDTH 4 0
BBX 0 0 0 0
BITMAP
ENDCHAR
STARTCHAR 2026
ENCODING 8230
SWIDTH 1028 0
DWIDTH 10 0
BBX 0 0 0 0
BITMAP
ENDCHAR
STARTCHAR 2030
ENCODING 8240
SWIDTH 1028 0
DWIDTH 10 0
BBX 0 0 0 0
BITMAP
ENDCHAR
STARTCHAR 2032
ENCODING 8242
SWIDTH 205 0
DWIDTH 2 0
BBX 0 0 0 0
BITMAP
ENDCHAR
STARTCHAR 2033
ENCODING 8243
SWIDTH 411 0
DWIDTH 4 0
BBX 0 0 0 0
BITMAP
ENDCHAR
STARTCHAR 2039
ENCODING 8249
SWIDTH 308 0
DWIDTH 3 0
BBX 0 0 0 0
BITMAP
ENDCHAR
STARTCHAR 203A
ENCODING 8250
SWIDTH 308 0
DWIDTH 3 0
BBX 0 0 0 0
BITMAP
ENDCHAR
STARTCHAR 203C
ENCODING 8252
SWIDTH 514 0
DWIDTH 5 0
BBX 0 0 0 0
BITMAP
ENDCHAR
STARTCHAR 203E
ENCODING 8254
SWIDTH 308 0
DWIDTH 3 0
BBX 0 0 0 0
BITMAP
ENDCHAR
STARTCHAR 2044
ENCODING 8260
SWIDTH 205 0
DWIDTH 2 0
BBX 0 0 0 0
BITMAP
ENDCHAR
STARTCHAR 207F
ENCODING 8319
SWIDTH 411 0
DWIDTH 4 0
BBX 0 0 0 0
BITMAP
ENDCHAR
STARTCHAR 20A3
ENCODING 8355
SWIDTH 617 0
DWIDTH 6 0
BBX 0 0 0 0
BITMAP
ENDCHAR
STARTCHAR 20A4
ENCODING 8356
SWIDTH 617 0
DWIDTH 6 0
BBX 0 0 0 0
BITMAP
ENDCHAR
STARTCHAR 20A7
ENCODING 8359
SWIDTH 1131 0
DWIDTH 11 0
BBX 0 0 0 0
BITMAP
ENDCHAR
STARTCHAR 20AC
ENCODING 8364
SWIDTH 617 0
DWIDTH 6 0
BBX 0 0 0 0
BITMAP
ENDCHAR
STARTCHAR 2105
ENCODING 8453
SWIDTH 925 0
DWIDTH 9 0
BBX 0 0 0 0
BITMAP
ENDCHAR
STARTCHAR 2113
ENCODING 8467
SWIDTH 308 0
DWIDTH 3 0
BBX 0 0 0 0
BITMAP
ENDCHAR
STARTCHAR 2122
ENCODING 8482
SWIDTH 1028 0
DWIDTH 10 0
BBX 0 0 0 0
BITMAP
ENDCHAR
STARTCHAR 2126
ENCODING 8486
SWIDTH 822 0
DWIDTH 8 0
BBX 0 0 0 0
BITMAP
ENDCHAR
STARTCHAR 212E
ENCODING 8494
SWIDTH 617 0
DWIDTH 6 0
BBX 0 0 0 0
BITMAP
ENDCHAR
STARTCHAR 215B
ENCODING 8539
SWIDTH 822 0
DWIDTH 8 0
BBX 0 0 0 0
BITMAP
ENDCHAR
STARTCHAR 215C
ENCODING 8540
SWIDTH 822 0
DWIDTH 8 0
BBX 0 0 0 0
BITMAP
ENDCHAR
STARTCHAR 215D
ENCODING 8541
SWIDTH 822 0
DWIDTH 8 0
BBX 0 0 0 0
BITMAP
ENDCHAR
STARTCHAR 215E
ENCODING 8542
SWIDTH 822 0
DWIDTH 8 0
BBX 0 0 0 0
BITMAP
ENDCHAR
STARTCHAR 2190
ENCODING 8592
SWIDTH 1028 0
DWIDTH 10 0
BBX 0 0 0 0
BITMAP
ENDCHAR
STARTCHAR 2191
ENCODING 8593
SWIDTH 514 0
DWIDTH 5 0
BBX 0 0 0 0
BITMAP
ENDCHAR
STARTCHAR 2192
ENCODING 8594
SWIDTH 1028 0
DWIDTH 10 0
BBX 0 0 0 0
BITMAP
ENDCHAR
STARTCHAR 2193
ENCODING 8595
SWIDTH 514 0
DWIDTH 5 0
BBX 0 0 0 0
BITMAP
ENDCHAR
STARTCHAR 2194
ENCODING 8596
SWIDTH 1028 0
DWIDTH 10 0
BBX 0 0 0 0
BITMAP
ENDCHAR
STARTCHAR 2195
ENCODING 8597
SWIDTH 514 0
DWIDTH 5 0
BBX 0 0 0 0
BITMAP
ENDCHAR
STARTCHAR 21A8
ENCODING 8616
SWIDTH 514 0
DWIDTH 5 0
BBX 0 0 0 0
BITMAP
ENDCHAR
STARTCHAR 2202
ENCODING 8706
SWIDTH 514 0
DWIDTH 5 0
BBX 0 0 0 0
BITMAP
ENDCHAR
STARTCHAR 2206
ENCODING 8710
SWIDTH 617 0
DWIDTH 6 0
BBX 0 0 0 0
BITMAP
ENDCHAR
STARTCHAR 220F
ENCODING 8719
SWIDTH 822 0
DWIDTH 8 0
BBX 0 0 0 0
BITMAP
ENDCHAR
STARTCHAR 2211
ENCODING 8721
SWIDTH 720 0
DWIDTH 7 0
BBX 0 0 0 0
BITMAP
ENDCHAR
STARTCHAR 2212
ENCODING 8722
SWIDTH 617 0
DWIDTH 6 0
BBX 0 0 0 0
BITMAP
ENDCHAR
STARTCHAR 2215
ENCODING 8725
SWIDTH 205 0
DWIDTH 2 0
BBX 0 0 0 0
BITMAP
ENDCHAR
STARTCHAR 2219
ENCODING 8729
SWIDTH 308 0
DWIDTH 3 0
BBX 0 0 0 0
BITMAP
ENDCHAR
STARTCHAR 221A
ENCODING 8730
SWIDTH 514 0
DWIDTH 5 0
BBX 0 0 0 0
BITMAP
ENDCHAR
STARTCHAR 221E
ENCODING 8734
SWIDTH 720 0
DWIDTH 7 0
BBX 0 0 0 0
BITMAP
ENDCHAR
STARTCHAR 221F
ENCODING 8735
SWIDTH 1028 0
DWIDTH 10 0
BBX 0 0 0 0
BITMAP
ENDCHAR
STARTCHAR 2229
ENCODING 8745
SWIDTH 720 0
DWIDTH 7 0
BBX 0 0 0 0
BITMAP
ENDCHAR
STARTCHAR 222B
ENCODING 8747
SWIDTH 308 0
DWIDTH 3 0
BBX 0 0 0 0
BITMAP
ENDCHAR
STARTCHAR 2248
ENCODING 8776
SWIDTH 514 0
DWIDTH 5 0
BBX 0 0 0 0
BITMAP
ENDCHAR
STARTCHAR 2260
ENCODING 8800
SWIDTH 514 0
DWIDTH 5 0
BBX 0 0 0 0
BITMAP
ENDCHAR
STARTCHAR 2261
ENCODING 8801
SWIDTH 617 0
DWIDTH 6 0
BBX 0 0 0 0
BITMAP
ENDCHAR
STARTCHAR 2264
ENCODING 8804
SWIDTH 514 0
DWIDTH 5 0
BBX 0 0 0 0
BITMAP
ENDCHAR
STARTCHAR 2265
ENCODING 8805
SWIDTH 514 0
DWIDTH 5 0
BBX 0 0 0 0
BITMAP
ENDCHAR
STARTCHAR 2302
ENCODING 8962
SWIDTH 617 0
DWIDTH 6 0
BBX 0 0 0 0
BITMAP
ENDCHAR
STARTCHAR 2310
ENCODING 8976
SWIDTH 617 0
DWIDTH 6 0
BBX 0 0 0 0
BITMAP
ENDCHAR
STARTCHAR 2320
ENCODING 8992
SWIDTH 617 0
DWIDTH 6 0
BBX 0 0 0 0
BITMAP
ENDCHAR
STARTCHAR 2321
ENCODING 8993
SWIDTH 617 0
DWIDTH 6 0
BBX 0 0 0 0
BITMAP
ENDCHAR
STARTCHAR 2500
ENCODING 9472
SWIDTH 720 0
DWIDTH 7 0
BBX 0 0 0 0
BITMAP
ENDCHAR
STARTCHAR 2502
ENCODING 9474
SWIDTH 617 0
DWIDTH 6 0
BBX 0 0 0 0
BITMAP
ENDCHAR
STARTCHAR 250C
ENCODING 9484
SWIDTH 720 0
DWIDTH 7 0
BBX 0 0 0 0
BITMAP
ENDCHAR
STARTCHAR 2510
ENCODING 9488
SWIDTH 720 0
DWIDTH 7 0
BBX 0 0 0 0
BITMAP
ENDCHAR
STARTCHAR 2514
ENCODING 9492
SWIDTH 720 0
DWIDTH 7 0
BBX 0 0 0 0
BITMAP
ENDCHAR
STARTCHAR 2518
ENCODING 9496
SWIDTH 720 0
DWIDTH 7 0
BBX 0 0 0 0
BITMAP
ENDCHAR
STARTCHAR 251C
ENCODING 9500
SWIDTH 720 0
DWIDTH 7 0
BBX 0 0 0 0
BITMAP
ENDCHAR
STARTCHAR 2524
ENCODING 9508
SWIDTH 720 0
DWIDTH 7 0
BBX 0 0 0 0
BITMAP
ENDCHAR
STARTCHAR 252C
ENCODING 9516
SWIDTH 720 0
DWIDTH 7 0
BBX 0 0 0 0
BITMAP
ENDCHAR
STARTCHAR 2534
ENCODING 9524
SWIDTH 720 0
DWIDTH 7 0
BBX 0 0 0 0
BITMAP
ENDCHAR
STARTCHAR 253C
ENCODING 9532
SWIDTH 720 0
DWIDTH 7 0
BBX 0 0 0 0
BITMAP
ENDCHAR
STARTCHAR 2550
ENCODING 9552
SWIDTH 720 0
DWIDTH 7 0
BBX 0 0 0 0
BITMAP
ENDCHAR
STARTCHAR 2551
ENCODING 9553
SWIDTH 720 0
DWIDTH 7 0
BBX 0 0 0 0
BITMAP
ENDCHAR
STARTCHAR 2552
ENCODING 9554
SWIDTH 720 0
DWIDTH 7 0
BBX 0 0 0 0
BITMAP
ENDCHAR
STARTCHAR 2553
ENCODING 9555
SWIDTH 720 0
DWIDTH 7 0
BBX 0 0 0 0
BITMAP
ENDCHAR
STARTCHAR 2554
ENCODING 9556
SWIDTH 720 0
DWIDTH 7 0
BBX 0 0 0 0
BITMAP
ENDCHAR
STARTCHAR 2555
ENCODING 9557
SWIDTH 720 0
DWIDTH 7 0
BBX 0 0 0 0
BITMAP
ENDCHAR
STARTCHAR 2556
ENCODING 9558
SWIDTH 720 0
DWIDTH 7 0
BBX 0 0 0 0
BITMAP
ENDCHAR
STARTCHAR 2557
ENCODING 9559
SWIDTH 720 0
DWIDTH 7 0
BBX 0 0 0 0
BITMAP
ENDCHAR
STARTCHAR 2558
ENCODING 9560
SWIDTH 720 0
DWIDTH 7 0
BBX 0 0 0 0
BITMAP
ENDCHAR
STARTCHAR 2559
ENCODING 9561
SWIDTH 720 0
DWIDTH 7 0
BBX 0 0 0 0
BITMAP
ENDCHAR
STARTCHAR 255A
ENCODING 9562
SWIDTH 720 0
DWIDTH 7 0
BBX 0 0 0 0
BITMAP
ENDCHAR
STARTCHAR 255B
ENCODING 9563
SWIDTH 720 0
DWIDTH 7 0
BBX 0 0 0 0
BITMAP
ENDCHAR
STARTCHAR 255C
ENCODING 9564
SWIDTH 720 0
DWIDTH 7 0
BBX 0 0 0 0
BITMAP
ENDCHAR
STARTCHAR 255D
ENCODING 9565
SWIDTH 720 0
DWIDTH 7 0
BBX 0 0 0 0
BITMAP
ENDCHAR
STARTCHAR 255E
ENCODING 9566
SWIDTH 720 0
DWIDTH 7 0
BBX 0 0 0 0
BITMAP
ENDCHAR
STARTCHAR 255F
ENCODING 9567
SWIDTH 720 0
DWIDTH 7 0
BBX 0 0 0 0
BITMAP
ENDCHAR
STARTCHAR 2560
ENCODING 9568
SWIDTH 720 0
DWIDTH 7 0
BBX 0 0 0 0
BITMAP
ENDCHAR
STARTCHAR 2561
ENCODING 9569
SWIDTH 720 0
DWIDTH 7 0
BBX 0 0 0 0
BITMAP
ENDCHAR
STARTCHAR 2562
ENCODING 9570
SWIDTH 720 0
DWIDTH 7 0
BBX 0 0 0 0
BITMAP
ENDCHAR
STARTCHAR 2563
ENCODING 9571
SWIDTH 720 0
DWIDTH 7 0
BBX 0 0 0 0
BITMAP
ENDCHAR
STARTCHAR 2564
ENCODING 9572
SWIDTH 720 0
DWIDTH 7 0
BBX 0 0 0 0
BITMAP
ENDCHAR
STARTCHAR 2565
ENCODING 9573
SWIDTH 720 0
DWIDTH 7 0
BBX 0 0 0 0
BITMAP
ENDCHAR
STARTCHAR 2566
ENCODING 9574
SWIDTH 720 0
DWIDTH 7 0
BBX 0 0 0 0
BITMAP
ENDCHAR
STARTCHAR 2567
ENCODING 9575
SWIDTH 720 0
DWIDTH 7 0
BBX 0 0 0 0
BITMAP
ENDCHAR
STARTCHAR 2568
ENCODING 9576
SWIDTH 720 0
DWIDTH 7 0
BBX 0 0 0 0
BITMAP
ENDCHAR
STARTCHAR 2569
ENCODING 9577
SWIDTH 720 0
DWIDTH 7 0
BBX 0 0 0 0
BITMAP
ENDCHAR
STARTCHAR 256A
ENCODING 9578
SWIDTH 720 0
DWIDTH 7 0
BBX 0 0 0 0
BITMAP
ENDCHAR
STARTCHAR 256B
ENCODING 9579
SWIDTH 720 0
DWIDTH 7 0
BBX 0 0 0 0
BITMAP
ENDCHAR
STARTCHAR 256C
ENCODING 9580
SWIDTH 720 0
DWIDTH 7 0
BBX 0 0 0 0
BITMAP
ENDCHAR
STARTCHAR 2580
ENCODING 9600
SWIDTH 720 0
DWIDTH 7 0
BBX 0 0 0 0
BITMAP
ENDCHAR
STARTCHAR 2584
ENCODING 9604
SWIDTH 720 0
DWIDTH 7 0
BBX 0 0 0 0
BITMAP
ENDCHAR
STARTCHAR 2588
ENCODING 9608
SWIDTH 720 0
DWIDTH 7 0
BBX 0 0 0 0
BITMAP
ENDCHAR
STARTCHAR 258C
ENCODING 9612
SWIDTH 720 0
DWIDTH 7 0
BBX 0 0 0 0
BITMAP
ENDCHAR
STARTCHAR 2590
ENCODING 9616
SWIDTH 720 0
DWIDTH 7 0
BBX 0 0 0 0
BITMAP
ENDCHAR
STARTCHAR 2591
ENCODING 9617
SWIDTH 720 0
DWIDTH 7 0
BBX 0 0 0 0
BITMAP
ENDCHAR
STARTCHAR 2592
ENCODING 9618
SWIDTH 720 0
DWIDTH 7 0
BBX 0 0 0 0
BITMAP
ENDCHAR
STARTCHAR 2593
ENCODING 9619
SWIDTH 720 0
DWIDTH 7 0
BBX 0 0 0 0
BITMAP
ENDCHAR
STARTCHAR 25A0
ENCODING 9632
SWIDTH 617 0
DWIDTH 6 0
BBX 0 0 0 0
BITMAP
ENDCHAR
STARTCHAR 25A1
ENCODING 9633
SWIDTH 617 0
DWIDTH 6 0
BBX 0 0 0 0
BITMAP
ENDCHAR
STARTCHAR 25AA
ENCODING 9642
SWIDTH 411 0
DWIDTH 4 0
BBX 0 0 0 0
BITMAP
ENDCHAR
STARTCHAR 25AB
ENCODING 9643
SWIDTH 411 0
DWIDTH 4 0
BBX 0 0 0 0
BITMAP
ENDCHAR
STARTCHAR 25AC
ENCODING 9644
SWIDTH 1028 0
DWIDTH 10 0
BBX 0 0 0 0
BITMAP
ENDCHAR
STARTCHAR 25B2
ENCODING 9650
SWIDTH 1028 0
DWIDTH 10 0
BBX 0 0 0 0
BITMAP
ENDCHAR
STARTCHAR 25BA
ENCODING 9658
SWIDTH 1028 0
DWIDTH 10 0
BBX 0 0 0 0
BITMAP
ENDCHAR
STARTCHAR 25BC
ENCODING 9660
SWIDTH 1028 0
DWIDTH 10 0
BBX 0 0 0 0
BITMAP
ENDCHAR
STARTCHAR 25C4
ENCODING 9668
SWIDTH 1028 0
DWIDTH 10 0
BBX 0 0 0 0
BITMAP
ENDCHAR
STARTCHAR 25CA
ENCODING 9674
SWIDTH 514 0
DWIDTH 5 0
BBX 0 0 0 0
BITMAP
ENDCHAR
STARTCHAR 25CB
ENCODING 9675
SWIDTH 617 0
DWIDTH 6 0
BBX 0 0 0 0
BITMAP
ENDCHAR
STARTCHAR 25CF
ENCODING 9679
SWIDTH 617 0
DWIDTH 6 0
BBX 0 0 0 0
BITMAP
ENDCHAR
STARTCHAR 25D8
ENCODING 9688
SWIDTH 617 0
DWIDTH 6 0
BBX 0 0 0 0
BITMAP
ENDCHAR
STARTCHAR 25D9
ENCODING 9689
SWIDTH 617 0
DWIDTH 6 0
BBX 0 0 0 0
BITMAP
ENDCHAR
STARTCHAR 25E6
ENCODING 9702
SWIDTH 411 0
DWIDTH 4 0
BBX 0 0 0 0
BITMAP
ENDCHAR
STARTCHAR 263A
ENCODING 9786
SWIDTH 1028 0
DWIDTH 10 0
BBX 0 0 0 0
BITMAP
ENDCHAR
STARTCHAR 263B
ENCODING 9787
SWIDTH 1131 0
DWIDTH 11 0
BBX 0 0 0 0
BITMAP
ENDCHAR
STARTCHAR 263C
ENCODING 9788
SWIDTH 925 0
DWIDTH 9 0
BBX 0 0 0 0
BITMAP
ENDCHAR
STARTCHAR 2640
ENCODING 9792
SWIDTH 822 0
DWIDTH 8 0
BBX 0 0 0 0
BITMAP
ENDCHAR
STARTCHAR 2642
ENCODING 9794
SWIDTH 822 0
DWIDTH 8 0
BBX 0 0 0 0
BITMAP
ENDCHAR
STARTCHAR 2660
ENCODING 9824
SWIDTH 514 0
DWIDTH 5 0
BBX 0 0 0 0
BITMAP
ENDCHAR
STARTCHAR 2663
ENCODING 9827
SWIDTH 720 0
DWIDTH 7 0
BBX 0 0 0 0
BITMAP
ENDCHAR
STARTCHAR 2665
ENCODING 9829
SWIDTH 617 0
DWIDTH 6 0
BBX 0 0 0 0
BITMAP
ENDCHAR
STARTCHAR 2666
ENCODING 9830
SWIDTH 514 0
DWIDTH 5 0
BBX 0 0 0 0
BITMAP
ENDCHAR
STARTCHAR 266A
ENCODING 9834
SWIDTH 514 0
DWIDTH 5 0
BBX 0 0 0 0
BITMAP
ENDCHAR
STARTCHAR 266B
ENCODING 9835
SWIDTH 822 0
DWIDTH 8 0
BBX 0 0 0 0
BITMAP
ENDCHAR
STARTCHAR F001
ENCODING 61441
SWIDTH 514 0
DWIDTH 5 0
BBX 0 0 0 0
BITMAP
ENDCHAR
STARTCHAR F002
ENCODING 61442
SWIDTH 514 0
DWIDTH 5 0
BBX 0 0 0 0
BITMAP
ENDCHAR
STARTCHAR F004
ENCODING 61444
SWIDTH 308 0
DWIDTH 3 0
BBX 0 0 0 0
BITMAP
ENDCHAR
STARTCHAR F005
ENCODING 61445
SWIDTH 308 0
DWIDTH 3 0
BBX 0 0 0 0
BITMAP
ENDCHAR
STARTCHAR FB01
ENCODING 64257
SWIDTH 514 0
DWIDTH 5 0
BBX 0 0 0 0
BITMAP
ENDCHAR
STARTCHAR FB02
ENCODING 64258
SWIDTH 514 0
DWIDTH 5 0
BBX 0 0 0 0
BITMAP
ENDCHAR
ENDFONT
